<svg width="24" height="24" viewBox="0 0 24 24" fill="none" xmlns="http://www.w3.org/2000/svg">
    <path fill-rule="evenodd" clip-rule="evenodd"
        d="M10.1028 3.63928H13.1077C14.8824 3.63928 16.2883 3.63928 17.3881 3.78702C18.5198 3.93958 19.4361 4.26015 20.1593 4.98241C21.0515 5.87557 21.3364 7.07096 21.4397 8.62265C21.9968 8.86694 22.4178 9.38546 22.4632 10.0421C22.468 10.101 22.468 10.1637 22.468 10.2217V13.9546C22.468 14.0125 22.468 14.0753 22.4642 14.1332C22.4178 14.7898 21.9968 15.3093 21.4397 15.5546C21.3364 17.1053 21.0515 18.3007 20.1593 19.1938C19.4361 19.9161 18.5198 20.2367 17.3881 20.3892C16.2873 20.537 14.8824 20.537 13.1077 20.537H10.1028C8.32804 20.537 6.92215 20.537 5.82235 20.3892C4.69069 20.2367 3.77435 19.9161 3.05113 19.1938C2.32888 18.4706 2.0083 17.5543 1.85574 16.4226C1.70801 15.3219 1.70801 13.9169 1.70801 12.1422V12.0341C1.70801 10.2593 1.70801 8.85343 1.85574 7.75363C2.0083 6.62196 2.32888 5.70563 3.05113 4.98241C3.77435 4.26015 4.69069 3.93958 5.82235 3.78702C6.92312 3.63928 8.32804 3.63928 10.1028 3.63928ZM19.9749 15.7091H18.1036C16.0324 15.7091 14.2596 14.1371 14.2596 12.0881C14.2596 10.0392 16.0324 8.46719 18.1026 8.46719H19.9739C19.8638 7.17235 19.6157 6.48775 19.1339 6.00689C18.7254 5.59845 18.1654 5.35319 17.194 5.22284C16.2024 5.08959 14.894 5.08766 13.0526 5.08766H10.1559C8.31452 5.08766 7.00712 5.08959 6.01354 5.22284C5.04313 5.35319 4.48309 5.59845 4.07465 6.00689C3.66621 6.41533 3.42095 6.97537 3.2906 7.94674C3.15735 8.93936 3.15542 10.2468 3.15542 12.0881C3.15542 13.9295 3.15735 15.2369 3.2906 16.2305C3.42095 17.2009 3.66621 17.7609 4.07465 18.1694C4.48309 18.5778 5.04313 18.8231 6.0145 18.9534C7.00712 19.0867 8.31452 19.0886 10.1559 19.0886H13.0526C14.894 19.0886 16.2024 19.0867 17.195 18.9534C18.1654 18.8231 18.7254 18.5778 19.1339 18.1694C19.6157 17.6885 19.8648 17.0049 19.9749 15.7091ZM5.57034 8.2258C5.57034 8.03373 5.64663 7.84953 5.78244 7.71372C5.91826 7.57791 6.10246 7.50161 6.29452 7.50161H10.1568C10.3489 7.50161 10.5331 7.57791 10.6689 7.71372C10.8047 7.84953 10.881 8.03373 10.881 8.2258C10.881 8.41786 10.8047 8.60206 10.6689 8.73787C10.5331 8.87368 10.3489 8.94998 10.1568 8.94998H6.29452C6.10246 8.94998 5.91826 8.87368 5.78244 8.73787C5.64663 8.60206 5.57034 8.41786 5.57034 8.2258ZM20.7049 9.91557H18.1036C16.7286 9.91557 15.708 10.9381 15.708 12.0881C15.708 13.2381 16.7286 14.2607 18.1026 14.2607H20.7271C20.926 14.2481 21.0119 14.1139 21.0187 14.0328V10.1434C21.0119 10.0623 20.926 9.92812 20.7271 9.91653H20.7039L20.7049 9.91557Z"
        fill="#4F4F4F" />
</svg>
    