<svg width="24" height="24" viewBox="0 0 24 24" fill="none" xmlns="http://www.w3.org/2000/svg">
    <path fill-rule="evenodd" clip-rule="evenodd"
        d="M8.51416 3.35763C8.79353 2.76895 9.39519 2.35986 10.0926 2.35986H14.0837C14.7802 2.35986 15.3818 2.76895 15.6622 3.35763C16.3437 3.36362 16.8755 3.39455 17.3504 3.58014C17.9174 3.80191 18.4105 4.17881 18.7732 4.66771C19.1394 5.15961 19.311 5.79219 19.5475 6.66125L19.5844 6.79695L20.1731 8.95912C20.566 9.1566 20.9102 9.43876 21.1809 9.78527C21.8015 10.5805 21.9112 11.5274 21.8015 12.613C21.6937 13.6666 21.3624 14.9936 20.9474 16.6549L20.9204 16.7597C20.658 17.8103 20.4445 18.6634 20.1921 19.3289C19.9267 20.0234 19.5914 20.5921 19.0376 21.0242C18.4849 21.4562 17.8513 21.6428 17.1139 21.7326C16.4065 21.8164 15.5275 21.8164 14.4449 21.8164H9.73144C8.64886 21.8164 7.76882 21.8164 7.0624 21.7316C6.32405 21.6438 5.69147 21.4562 5.1377 21.0232C4.58494 20.5921 4.24969 20.0234 3.98428 19.3289C3.73085 18.6634 3.51832 17.8103 3.25591 16.7597L3.22897 16.6549C2.8139 14.9936 2.48164 13.6666 2.37488 12.6139C2.26512 11.5264 2.37488 10.5805 2.99449 9.78527C3.27686 9.42408 3.61511 9.15668 4.00224 8.95912L4.59093 6.79695L4.62884 6.66125C4.86531 5.79219 5.03693 5.15961 5.40311 4.66671C5.76603 4.17818 6.25909 3.80164 6.82593 3.58014C7.30087 3.39455 7.83168 3.36262 8.51416 3.35763ZM8.51516 4.85628C7.85463 4.86327 7.59022 4.88821 7.37071 4.97402C7.06536 5.09344 6.7998 5.29641 6.60443 5.55971C6.42882 5.79618 6.32505 6.12645 6.0357 7.19107L5.68249 8.48518C6.71817 8.34649 8.05518 8.34649 9.71547 8.34649H14.4599C16.1212 8.34649 17.4582 8.34649 18.4929 8.48518L18.1406 7.19107C17.8503 6.12645 17.7475 5.79618 17.5719 5.55971C17.3765 5.29641 17.111 5.09344 16.8056 4.97402C16.5861 4.88821 16.3207 4.86327 15.6602 4.85628C15.5184 5.15428 15.295 5.40598 15.016 5.58222C14.737 5.75846 14.4137 5.85202 14.0837 5.85206H10.0926C9.76261 5.85202 9.43936 5.75846 9.16035 5.58222C8.88133 5.40598 8.65797 5.15428 8.51615 4.85628H8.51516ZM10.0926 3.85652C10.0265 3.85652 9.96303 3.8828 9.91625 3.92958C9.86947 3.97636 9.84319 4.03981 9.84319 4.10596C9.84319 4.17212 9.86947 4.23556 9.91625 4.28234C9.96303 4.32912 10.0265 4.3554 10.0926 4.3554H14.0837C14.1499 4.3554 14.2133 4.32912 14.2601 4.28234C14.3069 4.23556 14.3332 4.17212 14.3332 4.10596C14.3332 4.03981 14.3069 3.97636 14.2601 3.92958C14.2133 3.8828 14.1499 3.85652 14.0837 3.85652H10.0926ZM5.80222 9.97884C4.89425 10.1105 4.45423 10.35 4.17585 10.7072C3.89648 11.0634 3.77176 11.5473 3.86455 12.4613C3.95934 13.3952 4.26366 14.6165 4.69669 16.3526C4.97407 17.4581 5.16564 18.2244 5.38515 18.7971C5.59468 19.3499 5.80122 19.6422 6.06064 19.8448C6.31906 20.0463 6.65232 20.1751 7.241 20.2459C7.84964 20.3187 8.63788 20.3197 9.77933 20.3197H14.399C15.5395 20.3197 16.3297 20.3187 16.9373 20.2459C17.526 20.1761 17.8593 20.0463 18.1177 19.8448C18.3771 19.6422 18.5827 19.3499 18.7942 18.7971C19.0117 18.2244 19.2043 17.4581 19.4807 16.3526C19.9147 14.6165 20.219 13.3952 20.3128 12.4613C20.4066 11.5473 20.2809 11.0624 20.0025 10.7062C19.7241 10.35 19.2841 10.1105 18.3751 9.97884C17.4472 9.84514 16.188 9.84314 14.399 9.84314H9.77933C7.99033 9.84314 6.73114 9.84514 5.80322 9.97884H5.80222Z"
        fill="#808080" />
</svg>
    