<svg xmlns="http://www.w3.org/2000/svg" width="60" height="60" fill="none">
    <path
        fill="#F86E8C"
        fill-rule="evenodd"
        d="M0 30v7c0 12.703 10.298 23 23 23h14c12.703 0 23-10.297 23-23V23C60 10.298 49.703 0 37 0H23C10.298 0 0 10.298 0 23z"
        clip-rule="evenodd"
        opacity="0.21"
    ></path>
    <path
        fill="#ED125F"
        d="M18.333 41.667h25a1.667 1.667 0 1 1 0 3.333H16.666c-.92 0-1.667-.746-1.667-1.667V16.667a1.667 1.667 0 1 1 3.333 0z"
    ></path>
    <path
        fill="#ED125F"
        d="M24.55 34.473a1.667 1.667 0 1 1-2.431-2.28l6.25-6.666a1.666 1.666 0 0 1 2.297-.128l4.933 4.21 6.427-8.142a1.667 1.667 0 0 1 2.616 2.066l-7.5 9.5a1.666 1.666 0 0 1-2.39.235l-5.04-4.301z"
        opacity="0.5"
    ></path>
</svg>