<svg width="24" height="24" viewBox="0 0 24 24" fill="none" xmlns="http://www.w3.org/2000/svg">
    <path fill-rule="evenodd" clip-rule="evenodd"
        d="M8.59937 9.27977C8.59937 8.37797 8.95761 7.5131 9.59528 6.87543C10.2329 6.23776 11.0978 5.87952 11.9996 5.87952C12.9014 5.87952 13.7663 6.23776 14.404 6.87543C15.0416 7.5131 15.3999 8.37797 15.3999 9.27977C15.3999 10.1816 15.0416 11.0464 14.404 11.6841C13.7663 12.3218 12.9014 12.68 11.9996 12.68C11.0978 12.68 10.2329 12.3218 9.59528 11.6841C8.95761 11.0464 8.59937 10.1816 8.59937 9.27977ZM11.9996 7.23962C11.4585 7.23962 10.9396 7.45456 10.557 7.83716C10.1744 8.21977 9.95947 8.73869 9.95947 9.27977C9.95947 9.82085 10.1744 10.3398 10.557 10.7224C10.9396 11.105 11.4585 11.3199 11.9996 11.3199C12.5407 11.3199 13.0596 11.105 13.4422 10.7224C13.8248 10.3398 14.0398 9.82085 14.0398 9.27977C14.0398 8.73869 13.8248 8.21977 13.4422 7.83716C13.0596 7.45456 12.5407 7.23962 11.9996 7.23962Z"
        fill="#808080" />
    <path fill-rule="evenodd" clip-rule="evenodd"
        d="M2.25269 12C2.25269 6.61672 6.6168 2.25261 12.0001 2.25261C17.3834 2.25261 21.7475 6.61672 21.7475 12C21.7475 17.3833 17.3834 21.7474 12.0001 21.7474C6.6168 21.7474 2.25269 17.3833 2.25269 12ZM12.0001 3.61271C10.3432 3.61279 8.72346 4.1036 7.34522 5.02323C5.96698 5.94286 4.892 7.2501 4.2559 8.78001C3.6198 10.3099 3.45109 11.994 3.77105 13.6197C4.09101 15.2454 4.8853 16.7399 6.05372 17.9146C6.21693 17.0324 6.53882 16.2009 7.18351 15.5317C8.14918 14.5307 9.69153 14.0402 12.0001 14.0402C14.3086 14.0402 15.851 14.5307 16.8157 15.5317C17.4613 16.2009 17.7823 17.0324 17.9464 17.9155C19.1152 16.7408 19.9097 15.2462 20.2299 13.6204C20.55 11.9945 20.3814 10.3103 19.7452 8.78019C19.1091 7.25009 18.034 5.94271 16.6555 5.02303C15.2771 4.10336 13.6571 3.61261 12.0001 3.61271ZM16.7097 18.9411C16.6172 17.8421 16.3787 17.0369 15.8374 16.4756C15.248 15.8654 14.1572 15.4003 12.0001 15.4003C9.84296 15.4003 8.75216 15.8654 8.16278 16.4756C7.62146 17.0378 7.38299 17.8421 7.2905 18.942C8.67923 19.8865 10.3206 20.3902 12.0001 20.3873C13.6797 20.3899 15.321 19.8859 16.7097 18.9411Z"
        fill="#808080" />
</svg>
    