<svg width="34" height="34" viewBox="0 0 34 34" fill="none" xmlns="http://www.w3.org/2000/svg">
    <path
        d="M26.2813 13.8513V12.8819C26.2813 7.562 22.1233 3.25 17.0001 3.25C11.8768 3.25 7.71884 7.562 7.71884 12.8819V13.8513C7.72049 15.0084 7.39027 16.1417 6.76734 17.1169L5.24384 19.4888C3.85371 21.6544 4.91521 24.5983 7.33384 25.283C13.6535 27.0746 20.3467 27.0746 26.6663 25.283C29.085 24.5983 30.1465 21.6544 28.7563 19.4901L27.2328 17.1183C26.6094 16.1432 26.2787 15.0099 26.28 13.8526L26.2813 13.8513Z"
        stroke="#5932EA" stroke-width="1.5" />
    <path
        d="M10.8125 26.625C11.7131 29.0285 14.1427 30.75 17 30.75C19.8573 30.75 22.2869 29.0285 23.1875 26.625"
        stroke="#5932EA" stroke-width="1.5" stroke-linecap="round" />
</svg>
    