<svg width="24" height="24" viewBox="0 0 24 24" fill="none" xmlns="http://www.w3.org/2000/svg">
    <path
        d="M20.4027 7.79862L12 12M12 12L3.59721 7.79862M12 12V20.8696M15.3405 3.95389L17.2078 4.93422C19.2161 5.9883 20.2207 6.51487 20.779 7.46251C21.3364 8.40922 21.3364 9.58841 21.3364 11.944V12.0532C21.3364 14.4107 21.3364 15.5898 20.779 16.5366C20.2207 17.4842 19.2161 18.0117 17.2078 19.0658L15.3405 20.0452C13.7011 20.906 12.8813 21.3364 12 21.3364C11.1186 21.3364 10.2989 20.9069 8.65941 20.0461L6.79213 19.0658C4.78387 18.0117 3.77927 17.4851 3.22096 16.5375C2.66357 15.5908 2.66357 14.4116 2.66357 12.056V11.9468C2.66357 9.58934 2.66357 8.41016 3.22096 7.46345C3.77927 6.5158 4.78387 5.9883 6.79213 4.93515L8.65941 3.95483C10.2989 3.09401 11.1186 2.6636 12 2.6636C12.8813 2.6636 13.7011 3.09308 15.3405 3.95389Z"
        stroke="#808080" stroke-width="1.25343" stroke-linecap="round" />
</svg>
    